<svg width="146" height="32" viewBox="0 0 146 32" fill="none" xmlns="http://www.w3.org/2000/svg">
<path d="M145.102 10.5992L145.102 10.5992L145.103 10.5928C145.116 10.488 145.123 10.3882 145.123 10.2937C145.136 10.1876 145.143 10.0814 145.143 9.97521C145.143 8.99467 144.87 8.23293 144.301 7.71912C143.731 7.20502 142.809 6.96556 141.573 6.96556H134.52H134.393L134.372 7.09107L133.909 9.89275L133.88 10.0672H134.057H141.109C141.322 10.0672 141.496 10.0814 141.631 10.1079C141.768 10.1348 141.856 10.1722 141.908 10.2111L141.908 10.2113L141.915 10.2159C142.02 10.2858 142.085 10.3946 142.098 10.5667L141.406 14.6637C141.406 14.6639 141.406 14.664 141.406 14.6642C141.376 14.829 141.28 14.9561 141.092 15.0475C140.896 15.1427 140.603 15.1967 140.201 15.1967H135.757C135.423 15.1967 135.229 15.1564 135.139 15.1021C135.06 15.055 135.021 14.9923 135.018 14.8958L135.132 14.2923L135.132 14.2915C135.146 14.2141 135.198 14.142 135.336 14.0844C135.48 14.0247 135.7 13.9896 136.008 13.9896H140.336H140.463L140.484 13.8644L140.89 11.4492L140.919 11.2744H140.742H136.414C135.148 11.2744 134.151 11.5284 133.446 12.0573C132.738 12.5752 132.291 13.38 132.093 14.4495C132.093 14.4497 132.093 14.4498 132.093 14.4499L132.016 14.8549L132.016 14.8549L132.015 14.8583C131.975 15.1001 131.955 15.3727 131.955 15.6752C131.955 16.5346 132.236 17.2019 132.815 17.6489C133.388 18.0901 134.228 18.2984 135.313 18.2984H139.757C141.085 18.2984 142.15 18.0057 142.935 17.4027C143.722 16.798 144.209 15.8956 144.407 14.7146L145.102 10.5992Z" fill="black" stroke="black" stroke-width="0.3"/>
<path d="M125.29 18.2984H125.366L125.411 18.2363L133.391 7.20347L133.563 6.96556H133.27H130.004H129.927L129.882 7.0288L124.77 14.2381L122.049 7.06238L122.012 6.96556H121.909H118.972H118.752L118.832 7.16992L123.121 18.2027L123.158 18.2984H123.261H125.29Z" fill="black" stroke="black" stroke-width="0.3"/>
<path d="M114.493 10.2111L114.492 10.2116L114.504 10.2189C114.621 10.2907 114.689 10.3992 114.702 10.5666L113.99 14.7018C113.962 14.8503 113.869 14.9689 113.68 15.0557C113.483 15.1458 113.189 15.1967 112.786 15.1967H108.612C108.247 15.1967 107.99 15.1503 107.827 15.0716C107.686 15.0035 107.622 14.916 107.606 14.8059C107.614 14.788 107.619 14.7678 107.621 14.7453L108.315 10.6003C108.315 10.6001 108.315 10.5998 108.315 10.5996C108.345 10.4358 108.442 10.3086 108.633 10.2168C108.833 10.1213 109.13 10.0672 109.539 10.0672H113.713C113.92 10.0672 114.088 10.0814 114.22 10.1078C114.353 10.1345 114.44 10.1718 114.493 10.2111ZM116.991 14.7535L116.991 14.7532L117.686 10.6004C117.727 10.3842 117.747 10.1499 117.747 9.89792C117.747 8.94079 117.466 8.19754 116.883 7.69726C116.301 7.19871 115.381 6.96556 114.157 6.96556H110.003C108.632 6.96556 107.552 7.25251 106.781 7.84699C106.009 8.44287 105.532 9.3509 105.334 10.5495C105.334 10.5496 105.334 10.5497 105.334 10.5498L104.639 14.6638C104.612 14.8087 104.592 14.9477 104.579 15.0806C104.566 15.2148 104.559 15.3551 104.559 15.5013C104.559 16.4194 104.863 17.1303 105.488 17.606C106.105 18.0757 107.013 18.2984 108.187 18.2984H112.341C113.669 18.2984 114.734 18.0091 115.519 17.4128C116.306 16.8148 116.793 15.9221 116.991 14.7535Z" fill="black" stroke="black" stroke-width="0.3"/>
<path d="M91.1775 18.173L92.9142 7.71571L100.258 18.2343L100.303 18.2984H100.381H102.584H102.711L102.732 18.1729L105.244 3.02454L105.273 2.85H105.096H102.468H102.341L102.32 2.97526L100.546 13.5811L93.2983 2.91569L93.2537 2.85H93.1743H90.9716H90.8446L90.8236 2.97528L88.2925 18.1237L88.2633 18.2984H88.4404H91.0295H91.1567L91.1775 18.173Z" fill="black" stroke="black" stroke-width="0.3"/>
<path d="M85.6047 6.96557H85.4774L85.4567 7.0912L83.6405 18.124L83.6118 18.2984H83.7885H86.4742H86.6016L86.6222 18.1728L88.4385 7.13994L88.4672 6.96557H88.2905H85.6047ZM86.3003 2.85H86.1733L86.1524 2.97534L85.7853 5.17804L85.7561 5.3527H85.9332H88.619H88.746L88.7669 5.22736L89.134 3.02466L89.1632 2.85H88.9861H86.3003Z" fill="#06AED4" stroke="#06AED4" stroke-width="0.3"/>
<path d="M81.5139 2.85H81.6407H84.3651H84.5425L84.5131 3.02494L82.5422 14.7146L81.5139 2.85ZM81.5139 2.85L81.4928 2.97506M81.5139 2.85L81.4928 2.97506M81.4928 2.97506L79.5222 14.6637C79.5222 14.6639 79.5221 14.664 79.5221 14.6642C79.4929 14.829 79.3966 14.9561 79.2083 15.0475C79.0124 15.1427 78.7198 15.1967 78.3174 15.1967H74.1632C73.7978 15.1967 73.5413 15.1504 73.3783 15.0716C73.2375 15.0035 73.1729 14.916 73.1567 14.8059C73.1646 14.788 73.1705 14.7678 73.1724 14.7453L73.8665 10.6003C73.8665 10.6001 73.8665 10.5999 73.8666 10.5996C73.8958 10.4349 73.9921 10.3079 74.1804 10.2164C74.3763 10.1213 74.6689 10.0673 75.0713 10.0673H79.1096H79.2368L79.2576 9.94174L79.7213 7.14006L79.7502 6.96557H79.5733H75.535C74.164 6.96557 73.0833 7.25252 72.3132 7.847L72.3132 7.84699M81.4928 2.97506L72.3132 7.84699M72.3132 7.84699L72.3122 7.84779M72.3132 7.84699L72.3122 7.84779M72.3122 7.84779C71.5535 8.44388 71.0825 9.3517 70.8851 10.5495C70.885 10.5496 70.885 10.5497 70.885 10.5498L70.1898 14.6629C70.1898 14.6632 70.1897 14.6636 70.1897 14.6639C70.1634 14.8087 70.1435 14.9477 70.1302 15.0806C70.1168 15.2148 70.1101 15.3551 70.1101 15.5013C70.1101 16.4191 70.412 17.13 71.0336 17.6057C71.6476 18.0757 72.551 18.2984 73.7188 18.2984H77.873C79.2074 18.2984 80.2771 18.0058 81.0653 17.4029M72.3122 7.84779L81.0653 17.4029M81.0653 17.4029C81.8556 16.7983 82.3442 15.8959 82.5422 14.7147L81.0653 17.4029Z" fill="#06AED4" stroke="#06AED4" stroke-width="0.3"/>
<path d="M70.3312 10.0672H70.4584L70.4792 9.94174L70.9429 7.14006L70.9718 6.96556H70.795H68.9207C67.5497 6.96556 66.469 7.25251 65.6989 7.84699C64.9269 8.44292 64.449 9.35105 64.2514 10.5498L62.9955 18.1238L62.9666 18.2984H63.1435H65.8292H65.9564L65.9772 18.1729L67.2329 10.6003C67.2329 10.6 67.233 10.5998 67.233 10.5995C67.2621 10.4358 67.3591 10.3086 67.5509 10.2168C67.7502 10.1213 68.048 10.0672 68.457 10.0672H70.3312Z" fill="#06AED4" stroke="#06AED4" stroke-width="0.3"/>
<path d="M62.5514 10.5992L62.5515 10.5992L62.5523 10.5928C62.5654 10.4879 62.5724 10.3882 62.5728 10.2937C62.5857 10.1876 62.5921 10.0814 62.5921 9.97521C62.5921 8.99467 62.3198 8.23293 61.7504 7.71912C61.1808 7.20502 60.2584 6.96556 59.0222 6.96556H51.9697H51.8424L51.8217 7.09107L51.3579 9.89275L51.3291 10.0672H51.5059H58.5584C58.7717 10.0672 58.9448 10.0814 59.0803 10.1079C59.2175 10.1348 59.3054 10.1722 59.3572 10.2111L59.3571 10.2113L59.364 10.2159C59.4689 10.2858 59.534 10.3946 59.5476 10.5667L58.8551 14.6637C58.8551 14.6639 58.8551 14.664 58.855 14.6642C58.8258 14.829 58.7295 14.9561 58.5412 15.0475C58.3453 15.1427 58.0527 15.1967 57.6503 15.1967H53.2063C52.8726 15.1967 52.6782 15.1564 52.5878 15.1021C52.5092 15.055 52.4707 14.9923 52.4677 14.8958L52.5808 14.2923L52.581 14.2915C52.595 14.2141 52.6469 14.142 52.7855 14.0844C52.9295 14.0247 53.1496 13.9896 53.4574 13.9896H57.7856H57.9125L57.9335 13.8644L58.3392 11.4492L58.3686 11.2744H58.1913H53.8632C52.5969 11.2744 51.6007 11.5284 50.895 12.0573C50.1868 12.5752 49.7404 13.38 49.5422 14.4495C49.5422 14.4497 49.5422 14.4498 49.5422 14.4499L49.465 14.8549L49.465 14.8549L49.4644 14.8583C49.4241 15.1001 49.4044 15.3727 49.4044 15.6752C49.4044 16.5346 49.6851 17.2019 50.2647 17.6489C50.8369 18.0901 51.6776 18.2984 52.7619 18.2984H57.2059C58.534 18.2984 59.599 18.0057 60.384 17.4027C61.1711 16.798 61.6579 15.8956 61.8558 14.7146L62.5514 10.5992Z" fill="#06AED4" stroke="#06AED4" stroke-width="0.3"/>
<path d="M48.3162 15.3702L48.3437 15.1967H48.1681H40.903C40.5377 15.1967 40.2811 15.1504 40.1181 15.0716C39.9774 15.0035 39.9128 14.916 39.8966 14.8059C39.9045 14.788 39.9104 14.7677 39.9123 14.7451L41.2826 6.48469C41.2827 6.48446 41.2827 6.48424 41.2827 6.48401C41.3118 6.32021 41.4088 6.19304 41.6006 6.1012C41.8 6.00573 42.0977 5.95168 42.5067 5.95168H49.7525H49.8788L49.9003 5.82717L50.3833 3.02549L50.4136 2.85H50.2355H42.9898C41.6491 2.85 40.5746 3.14256 39.7832 3.74533C38.9895 4.3499 38.4992 5.25239 38.3012 6.43383L38.3012 6.43397L36.9295 14.664C36.9032 14.8088 36.8834 14.9477 36.8701 15.0806C36.8566 15.2148 36.85 15.3551 36.85 15.5013C36.85 16.4194 37.1537 17.1303 37.7786 17.606C38.3958 18.0757 39.3039 18.2984 40.4779 18.2984H47.7237H47.8518L47.8718 18.1719L48.3162 15.3702Z" fill="#06AED4" stroke="#06AED4" stroke-width="0.3"/>
<path d="M132.922 24.2571C133.439 24.2571 133.833 24.4255 134.104 24.7621C134.38 25.0927 134.47 25.5436 134.374 26.1146L133.887 28.8828H132.913L133.382 26.2138C133.442 25.8712 133.397 25.6127 133.247 25.4384C133.103 25.258 132.871 25.1678 132.553 25.1678C132.228 25.1678 131.943 25.267 131.696 25.4654C131.45 25.6578 131.284 25.9523 131.2 26.3491L130.758 28.8828H129.784L130.578 24.3744H131.552L131.453 24.9154C131.831 24.4766 132.321 24.2571 132.922 24.2571Z" fill="black"/>
<path d="M126.984 23.7432H127.948L129.085 22.5259H127.885L126.984 23.7432ZM126.776 29C126.067 29 125.517 28.7596 125.126 28.2787C124.735 27.7918 124.606 27.2027 124.738 26.5114C124.865 25.8441 125.186 25.3031 125.703 24.8883C126.22 24.4675 126.815 24.2571 127.489 24.2571C128.156 24.2571 128.682 24.4976 129.066 24.9785C129.451 25.4594 129.583 26.0395 129.463 26.7187C129.343 27.392 129.024 27.942 128.507 28.3688C127.996 28.7896 127.419 29 126.776 29ZM126.848 28.0533C127.239 28.0533 127.591 27.924 127.903 27.6655C128.222 27.407 128.42 27.0554 128.498 26.6105C128.577 26.1837 128.501 25.8441 128.273 25.5916C128.045 25.3332 127.738 25.2039 127.353 25.2039C126.963 25.2039 126.611 25.3332 126.298 25.5916C125.986 25.8441 125.79 26.1898 125.712 26.6286C125.64 27.0674 125.715 27.4161 125.938 27.6745C126.16 27.927 126.464 28.0533 126.848 28.0533Z" fill="black"/>
<path d="M124.04 23.6981C123.866 23.6981 123.728 23.6379 123.626 23.5177C123.53 23.3915 123.496 23.2442 123.526 23.0759C123.557 22.9076 123.641 22.7633 123.779 22.6431C123.917 22.5168 124.074 22.4537 124.248 22.4537C124.422 22.4537 124.56 22.5138 124.663 22.6341C124.765 22.7543 124.801 22.9016 124.771 23.0759C124.741 23.2442 124.657 23.3915 124.518 23.5177C124.38 23.6379 124.221 23.6981 124.04 23.6981ZM122.643 28.8828L123.436 24.3743H124.41L123.617 28.8828H122.643Z" fill="black"/>
<path d="M120.154 29C119.468 29 118.93 28.7596 118.54 28.2787C118.149 27.7978 118.011 27.2147 118.125 26.5294C118.239 25.8682 118.549 25.3241 119.054 24.8973C119.565 24.4705 120.16 24.2571 120.839 24.2571C121.296 24.2571 121.686 24.3623 122.011 24.5727C122.342 24.7831 122.576 25.0687 122.714 25.4293L121.84 25.8802C121.665 25.4353 121.302 25.2129 120.749 25.2129C120.346 25.2129 119.988 25.3422 119.676 25.6007C119.363 25.8591 119.171 26.1928 119.099 26.6015C119.033 27.0103 119.108 27.3529 119.324 27.6295C119.54 27.906 119.85 28.0442 120.253 28.0442C120.517 28.0442 120.761 27.9811 120.983 27.8549C121.212 27.7286 121.398 27.5573 121.542 27.3409L122.327 27.8459C122.098 28.2186 121.792 28.5041 121.407 28.7025C121.022 28.9008 120.604 29 120.154 29Z" fill="black"/>
<path d="M116.828 24.3744H117.801L117.008 28.8828H116.034L116.124 28.3508C115.704 28.7836 115.154 29 114.474 29C113.819 29 113.314 28.7536 112.959 28.2606C112.611 27.7617 112.497 27.1846 112.617 26.5294C112.737 25.8561 113.035 25.3091 113.509 24.8883C113.99 24.4675 114.546 24.2571 115.178 24.2571C115.881 24.2571 116.389 24.5397 116.701 25.1047L116.828 24.3744ZM114.763 28.0713C115.148 28.0713 115.493 27.9541 115.8 27.7196C116.106 27.4792 116.308 27.1696 116.404 26.7909L116.449 26.5294C116.491 26.1146 116.395 25.787 116.16 25.5466C115.926 25.3061 115.616 25.1859 115.232 25.1859C114.841 25.1859 114.489 25.3121 114.177 25.5646C113.864 25.8171 113.669 26.1627 113.591 26.6015C113.518 27.0223 113.594 27.374 113.816 27.6565C114.038 27.933 114.354 28.0713 114.763 28.0713Z" fill="black"/>
<path d="M111.907 24.3743H112.989L110.555 28.8828H109.518L108.661 24.3743H109.662L110.194 27.7286L111.907 24.3743Z" fill="black"/>
<path d="M105.638 29C104.928 29 104.378 28.7596 103.987 28.2787C103.597 27.7918 103.467 27.2027 103.6 26.5114C103.726 25.8441 104.048 25.3031 104.565 24.8883C105.081 24.4675 105.677 24.2571 106.35 24.2571C107.017 24.2571 107.543 24.4976 107.928 24.9785C108.313 25.4594 108.445 26.0395 108.325 26.7188C108.204 27.392 107.886 27.942 107.369 28.3688C106.858 28.7896 106.281 29 105.638 29ZM105.71 28.0533C106.1 28.0533 106.452 27.924 106.765 27.6655C107.083 27.407 107.282 27.0554 107.36 26.6106C107.438 26.1838 107.363 25.8441 107.134 25.5916C106.906 25.3332 106.599 25.2039 106.215 25.2039C105.824 25.2039 105.472 25.3332 105.16 25.5916C104.847 25.8441 104.652 26.1898 104.574 26.6286C104.501 27.0674 104.577 27.4161 104.799 27.6745C105.021 27.927 105.325 28.0533 105.71 28.0533Z" fill="black"/>
<path d="M101.613 24.2571C102.13 24.2571 102.524 24.4255 102.794 24.7621C103.071 25.0927 103.161 25.5436 103.065 26.1146L102.578 28.8828H101.604L102.073 26.2138C102.133 25.8712 102.088 25.6127 101.938 25.4384C101.793 25.258 101.562 25.1678 101.243 25.1678C100.919 25.1678 100.633 25.267 100.387 25.4654C100.14 25.6578 99.9749 25.9523 99.8908 26.3491L99.4489 28.8828H98.4751L99.2686 24.3744H100.242L100.143 24.9154C100.522 24.4766 101.012 24.2571 101.613 24.2571Z" fill="black"/>
<path d="M96.6597 24.2571C97.1766 24.2571 97.5704 24.4255 97.8409 24.7621C98.1174 25.0927 98.2076 25.5436 98.1114 26.1146L97.6245 28.8828H96.6506L97.1195 26.2138C97.1796 25.8712 97.1345 25.6127 96.9843 25.4384C96.84 25.258 96.6086 25.1678 96.29 25.1678C95.9654 25.1678 95.6798 25.267 95.4334 25.4654C95.1869 25.6578 95.0216 25.9523 94.9374 26.3491L94.4956 28.8828H93.5218L94.3153 24.3744H95.2891L95.1899 24.9154C95.5686 24.4766 96.0585 24.2571 96.6597 24.2571Z" fill="black"/>
<path d="M92.9952 23.6981C92.8209 23.6981 92.6826 23.6379 92.5804 23.5177C92.4842 23.3915 92.4512 23.2442 92.4812 23.0759C92.5113 22.9076 92.5955 22.7633 92.7337 22.6431C92.872 22.5168 93.0283 22.4537 93.2026 22.4537C93.3769 22.4537 93.5152 22.5138 93.6174 22.6341C93.7196 22.7543 93.7556 22.9016 93.7256 23.0759C93.6955 23.2442 93.6114 23.3915 93.4731 23.5177C93.3348 23.6379 93.1755 23.6981 92.9952 23.6981ZM91.5976 28.8828L92.3911 24.3743H93.3649L92.5714 28.8828H91.5976Z" fill="black"/>
<path d="M87.2965 24.2571C87.9697 24.2571 88.4927 24.4886 88.8654 24.9514C89.2441 25.4143 89.3704 25.9764 89.2441 26.6376C89.19 26.854 89.1539 26.9893 89.1359 27.0434H85.5472C85.5532 27.392 85.6674 27.6565 85.8898 27.8369C86.1122 28.0172 86.4038 28.1074 86.7645 28.1074C87.2995 28.1074 87.7233 27.918 88.0358 27.5393L88.7482 28.0803C88.2553 28.6935 87.567 29 86.6833 29C85.956 29 85.3999 28.7626 85.0152 28.2877C84.6305 27.8128 84.4952 27.2297 84.6094 26.5384C84.7236 25.8772 85.0332 25.3332 85.5382 24.9064C86.0431 24.4735 86.6292 24.2571 87.2965 24.2571ZM85.6824 26.2409H88.3244C88.3304 25.8682 88.2312 25.5916 88.0268 25.4113C87.8285 25.231 87.564 25.1408 87.2333 25.1408C86.8787 25.1408 86.5631 25.24 86.2866 25.4384C86.0161 25.6307 85.8147 25.8982 85.6824 26.2409Z" fill="black"/>
<path d="M81.2384 24.3744H82.2122L81.4187 28.8828H80.4449L80.535 28.3508C80.1143 28.7836 79.5642 29 78.885 29C78.2297 29 77.7248 28.7536 77.3701 28.2606C77.0215 27.7617 76.9072 27.1846 77.0275 26.5294C77.1477 25.8561 77.4453 25.3091 77.9201 24.8883C78.401 24.4675 78.9571 24.2571 79.5883 24.2571C80.2916 24.2571 80.7995 24.5397 81.1121 25.1047L81.2384 24.3744ZM79.1735 28.0713C79.5582 28.0713 79.9039 27.9541 80.2104 27.7196C80.517 27.4792 80.7184 27.1696 80.8146 26.7909L80.8597 26.5294C80.9017 26.1146 80.8056 25.787 80.5711 25.5466C80.3367 25.3061 80.0271 25.1859 79.6424 25.1859C79.2516 25.1859 78.9 25.3121 78.5874 25.5646C78.2748 25.8171 78.0794 26.1627 78.0013 26.6015C77.9292 27.0223 78.0043 27.374 78.2267 27.6565C78.4491 27.933 78.7647 28.0713 79.1735 28.0713Z" fill="black"/>
<path d="M74.4288 29C73.7435 29 73.2055 28.7596 72.8147 28.2787C72.424 27.7978 72.2857 27.2147 72.4 26.5294C72.5142 25.8682 72.8238 25.3241 73.3287 24.8973C73.8397 24.4705 74.4348 24.2571 75.114 24.2571C75.5709 24.2571 75.9616 24.3623 76.2862 24.5727C76.6169 24.7831 76.8513 25.0687 76.9896 25.4293L76.1149 25.8802C75.9406 25.4353 75.5769 25.2129 75.0239 25.2129C74.6211 25.2129 74.2635 25.3422 73.9509 25.6007C73.6383 25.8591 73.4459 26.1928 73.3738 26.6015C73.3077 27.0103 73.3828 27.3529 73.5992 27.6295C73.8156 27.906 74.1252 28.0442 74.5279 28.0442C74.7924 28.0442 75.0359 27.9811 75.2583 27.8549C75.4867 27.7286 75.6731 27.5573 75.8174 27.3409L76.6018 27.8459C76.3734 28.2186 76.0668 28.5041 75.6821 28.7025C75.2974 28.9008 74.8796 29 74.4288 29Z" fill="black"/>
<path d="M71.7111 23.6981C71.5368 23.6981 71.3985 23.6379 71.2963 23.5177C71.2001 23.3915 71.1671 23.2442 71.1971 23.0759C71.2272 22.9076 71.3113 22.7633 71.4496 22.6431C71.5878 22.5168 71.7441 22.4537 71.9185 22.4537C72.0928 22.4537 72.2311 22.5138 72.3332 22.6341C72.4354 22.7543 72.4715 22.9016 72.4414 23.0759C72.4114 23.2442 72.3272 23.3915 72.189 23.5177C72.0507 23.6379 71.8914 23.6981 71.7111 23.6981ZM70.3135 28.8828L71.1069 24.3743H72.0808L71.2873 28.8828H70.3135Z" fill="black"/>
<path d="M69.1148 25.3121L68.7361 27.4762C68.7061 27.6625 68.7271 27.7978 68.7993 27.8819C68.8714 27.9661 68.9886 28.0112 69.1509 28.0172C69.3192 28.0232 69.5236 28.0202 69.7641 28.0082L69.6108 28.8828C68.8954 28.973 68.3815 28.9068 68.0689 28.6844C67.7623 28.456 67.6601 28.0532 67.7623 27.4762L68.141 25.3121H67.3115L67.4828 24.3744H68.3123L68.4837 23.4005L69.5026 23.112L69.2771 24.3744H70.4043L70.2329 25.3121H69.1148Z" fill="black"/>
<path d="M64.3732 23.7432H65.338L66.4741 22.5259H65.2749L64.3732 23.7432ZM64.1658 29C63.4565 29 62.9064 28.7596 62.5157 28.2787C62.125 27.7918 61.9957 27.2027 62.128 26.5114C62.2542 25.8441 62.5758 25.3031 63.0928 24.8883C63.6098 24.4675 64.2049 24.2571 64.8781 24.2571C65.5454 24.2571 66.0714 24.4976 66.4561 24.9785C66.8408 25.4594 66.9731 26.0395 66.8528 26.7187C66.7326 27.392 66.414 27.942 65.897 28.3688C65.3861 28.7896 64.809 29 64.1658 29ZM64.2379 28.0533C64.6287 28.0533 64.9803 27.924 65.2929 27.6655C65.6115 27.407 65.8099 27.0554 65.888 26.6105C65.9662 26.1837 65.891 25.8441 65.6626 25.5916C65.4342 25.3332 65.1276 25.2039 64.7429 25.2039C64.3522 25.2039 64.0005 25.3332 63.6879 25.5916C63.3753 25.8441 63.18 26.1898 63.1018 26.6286C63.0297 27.0674 63.1048 27.4161 63.3272 27.6745C63.5496 27.927 63.8532 28.0533 64.2379 28.0533Z" fill="black"/>
<path d="M59.7756 24.2571C60.4128 24.2571 60.9087 24.4976 61.2634 24.9785C61.6241 25.4534 61.7503 26.0214 61.6421 26.6827C61.5339 27.3319 61.2424 27.8819 60.7675 28.3328C60.2926 28.7776 59.7185 29 59.0452 29C58.3479 29 57.852 28.7175 57.5574 28.1524L57.4312 28.8828H56.4574L57.5665 22.571H58.5403L58.1165 24.9604C58.5673 24.4916 59.1204 24.2571 59.7756 24.2571ZM60.6683 26.6015C60.7404 26.1807 60.6653 25.8411 60.4429 25.5826C60.2264 25.3181 59.9139 25.1859 59.5051 25.1859C59.0963 25.1859 58.7326 25.3211 58.4141 25.5916C58.0955 25.8621 57.9001 26.2078 57.828 26.6286C57.7558 27.0494 57.831 27.395 58.0534 27.6655C58.2818 27.936 58.5974 28.0713 59.0001 28.0713C59.4149 28.0713 59.7786 27.933 60.0912 27.6565C60.4038 27.38 60.5961 27.0283 60.6683 26.6015Z" fill="black"/>
<path d="M53.4491 29C52.7397 29 52.1897 28.7596 51.799 28.2787C51.4082 27.7918 51.279 27.2027 51.4112 26.5114C51.5375 25.8441 51.8591 25.3031 52.376 24.8883C52.893 24.4675 53.4881 24.2571 54.1614 24.2571C54.8286 24.2571 55.3546 24.4976 55.7393 24.9785C56.1241 25.4594 56.2563 26.0395 56.1361 26.7188C56.0159 27.392 55.6973 27.942 55.1803 28.3688C54.6693 28.7896 54.0923 29 53.4491 29ZM53.5212 28.0533C53.9119 28.0533 54.2636 27.924 54.5762 27.6655C54.8948 27.407 55.0931 27.0554 55.1713 26.6106C55.2494 26.1838 55.1743 25.8441 54.9459 25.5916C54.7174 25.3332 54.4109 25.2039 54.0261 25.2039C53.6354 25.2039 53.2837 25.3332 52.9712 25.5916C52.6586 25.8441 52.4632 26.1898 52.3851 26.6286C52.3129 27.0674 52.3881 27.4161 52.6105 27.6745C52.8329 27.927 53.1365 28.0533 53.5212 28.0533Z" fill="black"/>
<path d="M51.5022 24.6899C51.424 25.1107 51.2437 25.4774 50.9612 25.79C50.6846 26.1026 50.342 26.325 49.9332 26.4572L50.9251 28.8828H49.8701L48.9414 26.5835H47.6339L47.2282 28.8828H46.1912L47.3003 22.571H49.7799C50.333 22.571 50.7808 22.7844 51.1235 23.2112C51.4721 23.638 51.5984 24.1309 51.5022 24.6899ZM50.0505 25.3482C50.2789 25.1438 50.4201 24.8943 50.4743 24.5998C50.5284 24.3052 50.4712 24.0557 50.3029 23.8514C50.1406 23.647 49.9122 23.5448 49.6176 23.5448H48.1659L47.7962 25.6547H49.284C49.5726 25.6547 49.828 25.5525 50.0505 25.3482Z" fill="black"/>
<path fill-rule="evenodd" clip-rule="evenodd" d="M7.36793 1.2072C7.1624 1.2072 6.99578 1.37382 6.99578 1.57935V4.34982H5.85865C5.75161 4.34982 5.64976 4.3959 5.5791 4.4763L4.37995 5.84086C4.32026 5.90878 4.28734 5.99611 4.28734 6.08652V8.29876H3.33629C3.13075 8.29876 2.96414 8.46538 2.96414 8.67091V12.4131H1.37215C1.16662 12.4131 1 12.5797 1 12.7853V20.7659C1 20.9714 1.16662 21.138 1.37215 21.138H2.07511V24.5494C2.07511 24.7549 2.24172 24.9215 2.44726 24.9215H4.03924V25.7072C4.03924 25.7932 4.06906 25.8766 4.12362 25.9432L4.9713 26.9769C5.04199 27.0631 5.14759 27.1131 5.25907 27.1131H6.12743V28.7051C6.12743 28.9106 6.29404 29.0772 6.49958 29.0772H8.47405V29.9042C8.47405 30.0091 8.51828 30.1091 8.59587 30.1796L9.39186 30.9032C9.46036 30.9655 9.54962 31 9.6422 31H12.5781C12.6768 31 12.7714 30.9608 12.8412 30.891L13.6889 30.0433C13.7587 29.9736 13.7979 29.8789 13.7979 29.7802V28.1717C13.985 28.0454 14.108 27.8314 14.108 27.5886C14.108 27.2004 13.7933 26.8857 13.4051 26.8857C13.0168 26.8857 12.7021 27.2004 12.7021 27.5886C12.7021 27.8488 12.8435 28.076 13.0536 28.1975V29.626L12.4239 30.2557H9.78607L9.21836 29.7396V29.0772H10.5757C10.6999 29.2759 10.9206 29.408 11.1722 29.408C11.5604 29.408 11.8751 29.0933 11.8751 28.7051C11.8751 28.3169 11.5604 28.0021 11.1722 28.0021C10.9206 28.0021 10.6999 28.1343 10.5757 28.3329H8.8462H6.87173V27.1131H10.8207C10.9165 27.1131 11.0087 27.0761 11.0779 27.0099L12.5045 25.6453C12.5779 25.5751 12.6194 25.478 12.6194 25.3764V22.2751C12.6194 22.1712 12.5759 22.0719 12.4995 22.0015L11.445 21.0297C11.3763 20.9664 11.2863 20.9313 11.1928 20.9313H7.01646C6.81092 20.9313 6.6443 21.0979 6.6443 21.3034V23.7017C6.6443 23.7946 6.67902 23.8841 6.74163 23.9526L7.60998 24.9037C7.68049 24.9809 7.78024 25.0249 7.88481 25.0249H10.2831C10.4887 25.0249 10.6553 24.8583 10.6553 24.6528V22.8334C10.6553 22.6278 10.4887 22.4612 10.2831 22.4612H9.4356C9.31727 22.2397 9.08383 22.0891 8.81519 22.0891C8.42696 22.0891 8.11224 22.4038 8.11224 22.792C8.11224 23.1802 8.42696 23.495 8.81519 23.495C9.04886 23.495 9.25591 23.3809 9.38372 23.2055H9.91097V24.2806H8.04896L7.38861 23.5574V21.6756H11.0475L11.8751 22.4383V25.2174L10.6713 26.3688H6.49958H5.43518L4.78354 25.5741V24.9215H5.25907C5.46461 24.9215 5.63122 24.7549 5.63122 24.5494V22.6473C5.63122 22.4418 5.46461 22.2751 5.25907 22.2751H4.50343C4.38188 22.065 4.15471 21.9237 3.89452 21.9237C3.50628 21.9237 3.19156 22.2384 3.19156 22.6266C3.19156 23.0148 3.50628 23.3296 3.89452 23.3296C4.13725 23.3296 4.35124 23.2065 4.47755 23.0194H4.88692V24.1772H4.41139H2.81941V21.138H3.25359C3.45912 21.138 3.62574 20.9714 3.62574 20.7659V18.413C3.81284 18.2867 3.93587 18.0727 3.93587 17.83C3.93587 17.4418 3.62114 17.127 3.23291 17.127C2.84468 17.127 2.52996 17.4418 2.52996 17.83C2.52996 18.0902 2.67132 18.3174 2.88143 18.4389V20.3937H2.44726H1.7443V13.1574H2.96414V15.6591C2.96414 15.8646 3.13075 16.0313 3.33629 16.0313H7.82279C7.92149 16.0313 8.01614 15.992 8.08594 15.9223L9.51814 14.49V17.2924C9.51814 17.498 9.68476 17.6646 9.8903 17.6646H11.1932C11.3145 17.8158 11.5008 17.9127 11.7097 17.9127C12.0751 17.9127 12.3713 17.6165 12.3713 17.2511C12.3713 16.8857 12.0751 16.5895 11.7097 16.5895C11.4648 16.5895 11.251 16.7225 11.1366 16.9203H10.2624V13.5916C10.2624 13.4411 10.1718 13.3054 10.0327 13.2478C9.89365 13.1902 9.73358 13.222 9.62714 13.3284L7.66864 15.2869H3.70844V12.7853V9.04306H4.65949H6.91308V11.1057C6.78575 11.2262 6.70633 11.3969 6.70633 11.5861C6.70633 11.9515 7.00254 12.2477 7.36793 12.2477C7.73333 12.2477 8.02954 11.9515 8.02954 11.5861C8.02954 11.3245 7.87772 11.0984 7.65738 10.991V8.67091V6.92972C7.87772 6.82235 8.02954 6.59622 8.02954 6.33463C8.02954 5.96923 7.73333 5.67302 7.36793 5.67302C7.00254 5.67302 6.70633 5.96923 6.70633 6.33463C6.70633 6.52383 6.78575 6.69449 6.91308 6.81507V8.29876H5.03165V6.22681L6.02704 5.09412H7.36793C7.57347 5.09412 7.74009 4.9275 7.74009 4.72197V1.9515H13.0536V4.20269C12.8673 4.31974 12.7435 4.52707 12.7435 4.76332C12.7435 5.12871 13.0397 5.42492 13.4051 5.42492C13.7705 5.42492 14.0667 5.12871 14.0667 4.76332C14.0667 4.54501 13.9609 4.35141 13.7979 4.23091V1.57935C13.7979 1.37382 13.6313 1.2072 13.4257 1.2072H7.36793ZM9.65173 3.60551H10.738V6.72745C10.738 6.93299 10.9046 7.0996 11.1101 7.0996H12.4127V7.82323H9.66287V5.47141C9.77806 5.35235 9.84895 5.19016 9.84895 5.01142C9.84895 4.64603 9.55274 4.34982 9.18734 4.34982C8.82195 4.34982 8.52574 4.64603 8.52574 5.01142C8.52574 5.28112 8.68711 5.51312 8.91857 5.61615V8.19539C8.91857 8.40092 9.08518 8.56754 9.29072 8.56754H12.7848C12.9903 8.56754 13.157 8.40092 13.157 8.19539V6.72745C13.157 6.52192 12.9903 6.3553 12.7848 6.3553H11.4823V3.23336C11.4823 3.02783 11.3157 2.86121 11.1101 2.86121H9.65173C9.53265 2.68648 9.33204 2.57176 9.10464 2.57176C8.73925 2.57176 8.44304 2.86797 8.44304 3.23336C8.44304 3.59875 8.73925 3.89496 9.10464 3.89496C9.33204 3.89496 9.53265 3.78024 9.65173 3.60551ZM10.8207 10.0975C10.7234 10.0975 10.63 10.1356 10.5605 10.2036L6.90607 13.7777H5.61055V11.5678C5.79685 11.4508 5.92068 11.2435 5.92068 11.0072C5.92068 10.6418 5.62447 10.3456 5.25907 10.3456C4.89368 10.3456 4.59747 10.6418 4.59747 11.0072C4.59747 11.2255 4.7032 11.4191 4.86625 11.5396V14.1498C4.86625 14.3553 5.03286 14.522 5.2384 14.522H7.05781C7.15508 14.522 7.24848 14.4839 7.31802 14.4159L10.9724 10.8418H13.0122V14.6047H11.7511V12.8775C11.9258 12.7584 12.0405 12.5578 12.0405 12.3304C12.0405 11.965 11.7443 11.6688 11.3789 11.6688C11.0135 11.6688 10.7173 11.965 10.7173 12.3304C10.7173 12.5578 10.832 12.7584 11.0068 12.8775V14.9768C11.0068 15.1824 11.1734 15.349 11.3789 15.349H13.3844C13.5899 15.349 13.7565 15.1824 13.7565 14.9768V10.4696C13.7565 10.2641 13.5899 10.0975 13.3844 10.0975H10.8207ZM5.4038 17.1684C5.19826 17.1684 5.03165 17.335 5.03165 17.5405V19.484C5.03165 19.6895 5.19826 19.8561 5.4038 19.8561H11.4931C11.618 20.1248 11.8902 20.311 12.2059 20.311C12.6398 20.311 12.9916 19.9592 12.9916 19.5253C12.9916 19.0914 12.6398 18.7397 12.2059 18.7397C11.9237 18.7397 11.6763 18.8885 11.5377 19.1118H5.77595V17.9127H7.03842C7.17194 18.1122 7.39932 18.2435 7.65738 18.2435C8.06845 18.2435 8.40169 17.9103 8.40169 17.4992C8.40169 17.0881 8.06845 16.7549 7.65738 16.7549C7.36514 16.7549 7.11224 16.9233 6.99045 17.1684H5.4038Z" fill="black" stroke="black" stroke-width="0.5" stroke-linejoin="round"/>
<path fill-rule="evenodd" clip-rule="evenodd" d="M19.2599 1.11421C20.1874 1.38213 20.8434 2.06994 21.2059 2.6783C22.7644 2.56702 23.7991 3.04541 24.4421 3.75249C25.0451 4.41551 25.2698 5.2426 25.2975 5.86249C26.8337 7.1189 27.1885 8.81293 27.1698 9.69615C27.9457 10.3395 28.3003 11.1542 28.4481 11.7932C28.5262 12.1309 28.5486 12.4272 28.5428 12.6351C28.5409 12.7048 28.5356 12.7749 28.5248 12.8377C28.8539 13.4988 28.8534 14.2369 28.7949 14.6566C30.1428 16.3338 30.2194 18.0314 29.9454 19.303C29.806 19.9495 29.5768 20.4852 29.3816 20.8552C29.284 21.0403 29.1936 21.1864 29.125 21.2865C29.1114 21.3063 29.0982 21.325 29.0855 21.3424C29.0912 23.2608 28.21 24.1958 27.5127 24.497C27.4822 25.9079 26.8996 26.9043 26.1588 27.57C25.4498 28.2071 24.6046 28.5349 23.9783 28.6542C23.3981 29.6264 22.6965 30.2493 21.926 30.5945C21.1216 30.9548 20.2711 30.9996 19.4561 30.8604C17.839 30.5841 16.313 29.5762 15.4012 28.7424C15.3327 28.6798 15.2936 28.5912 15.2936 28.4983V2.65443C15.2936 2.56039 15.3336 2.4708 15.4037 2.40805C16.8923 1.07429 18.2041 0.809203 19.2599 1.11421ZM27.8341 12.7614C27.8436 12.7261 27.8588 12.6924 27.8795 12.6619C27.8803 12.6489 27.881 12.6339 27.8815 12.6168C27.8856 12.4675 27.8695 12.2275 27.8035 11.9423C27.6718 11.373 27.3491 10.6543 26.6313 10.1136C26.5397 10.0446 26.4904 9.93307 26.5009 9.81887C26.5465 9.32675 26.4185 8.2571 25.7012 7.25104C25.6912 7.24716 25.6814 7.24245 25.6719 7.2369C25.1455 6.9304 24.2947 6.58191 23.46 6.52642C22.6409 6.47196 21.8702 6.69802 21.4003 7.48825C21.3858 7.55694 21.377 7.67268 21.3747 7.83457C21.3722 8.00626 21.377 8.20862 21.382 8.42428L21.3824 8.4386L21.3824 8.44145C21.3926 8.8719 21.4042 9.36401 21.3486 9.69728C21.3113 9.92142 21.1713 10.099 20.9898 10.2295C20.809 10.3594 20.5757 10.4516 20.3185 10.5087C19.8036 10.6228 19.153 10.6046 18.5228 10.4199C17.4645 10.1097 17.0622 9.19748 16.9917 8.7663C16.9733 8.65361 17.0497 8.54731 17.1623 8.52887C17.275 8.51043 17.3813 8.58684 17.3998 8.69952C17.4533 9.02643 17.7788 9.77094 18.6391 10.0231C19.2081 10.1899 19.7877 10.2028 20.229 10.1049C20.4499 10.056 20.6262 9.98153 20.7485 9.89371C20.8699 9.80644 20.9264 9.71529 20.9407 9.6293C20.9884 9.34305 20.9795 8.89588 20.969 8.44832L20.9685 8.42937C20.9636 8.21751 20.9586 8.00831 20.9612 7.82864C20.9638 7.64992 20.9736 7.47632 21.0075 7.35437C21.0122 7.33754 21.019 7.32137 21.0277 7.30624C21.6013 6.31377 22.5633 6.05239 23.4874 6.11383C24.0041 6.14818 24.5194 6.28287 24.9714 6.45251C24.9062 6.39626 24.8383 6.3409 24.7677 6.28658C24.6853 6.22309 24.6375 6.12451 24.6388 6.02046C24.6449 5.51519 24.4739 4.77078 23.9526 4.19762C23.4455 3.64 22.5655 3.19906 21.0547 3.35562C20.9186 3.36973 20.7878 3.29855 20.7258 3.17656C20.4496 2.63365 19.8773 1.9812 19.0763 1.74982C18.3219 1.5319 17.2759 1.66333 15.9552 2.80397V4.44051C16.3546 4.0635 17.0387 3.70921 17.9086 4.03189C18.6145 4.29378 18.8996 4.73865 18.9781 5.1624C19.0529 5.56654 18.9342 5.91938 18.8986 6.01437C18.8852 6.05023 18.862 6.08524 18.8501 6.10315L18.85 6.1033C18.8361 6.12421 18.8187 6.14924 18.8005 6.17531L18.7932 6.18574C18.7503 6.24727 18.6971 6.32429 18.6411 6.41594C18.5285 6.6001 18.4088 6.83688 18.3484 7.10382C18.2886 7.36843 18.2874 7.66071 18.4086 7.96428C18.5301 8.26855 18.7817 8.60194 19.2579 8.93577C19.3514 9.00131 19.374 9.13025 19.3085 9.22374C19.2429 9.31724 19.114 9.3399 19.0205 9.27436C18.494 8.90523 18.1822 8.51241 18.0245 8.1176C17.8666 7.7221 17.8706 7.34244 17.9451 7.01263C18.0192 6.68516 18.1631 6.40507 18.2883 6.20027C18.3511 6.09746 18.4103 6.01198 18.454 5.94929L18.4611 5.93906C18.4801 5.91191 18.4944 5.89139 18.5053 5.87492C18.5101 5.86768 18.5131 5.86288 18.5148 5.86013C18.5444 5.77803 18.6238 5.51998 18.5715 5.2377C18.5207 4.96367 18.3406 4.63322 17.7647 4.41958C16.8714 4.08816 16.2224 4.67216 16.0065 5.01759C15.9926 5.03989 15.9751 5.05861 15.9552 5.07349V16.8034C16.1633 16.9703 16.4122 17.1359 16.6915 17.2811C17.2782 17.586 17.9863 17.7944 18.7205 17.7479C19.4498 17.7017 20.2183 17.4034 20.935 16.6722C21.0149 16.5906 21.1458 16.5893 21.2274 16.6692C21.3089 16.7492 21.3102 16.8801 21.2303 16.9616C20.4431 17.7647 19.5792 18.1078 18.7467 18.1606C18.2473 18.1922 17.764 18.1192 17.3197 17.9838C17.846 18.8007 18.2443 20.1565 17.6179 21.9105C17.1036 23.3503 16.9157 24.2409 16.8985 24.919C16.8814 25.5883 17.0295 26.0636 17.2248 26.6908L17.2277 26.7001C17.2617 26.8091 17.2008 26.925 17.0918 26.959C16.9828 26.993 16.8669 26.9321 16.8329 26.8231L16.8244 26.7956C16.6319 26.178 16.4663 25.6464 16.4851 24.9085C16.504 24.1652 16.7089 23.226 17.2284 21.7714C18.0158 19.5668 17.0429 18.0969 16.4823 17.6383C16.2935 17.5392 16.1169 17.4312 15.9552 17.3189V28.3507C16.8221 29.1138 18.1799 29.9711 19.5676 30.2082C20.2845 30.3307 20.9968 30.2858 21.6555 29.9907C22.2767 29.7124 22.8763 29.1999 23.3945 28.3412C22.3287 27.9063 20.5641 26.9168 19.4661 25.3503C19.4005 25.2568 19.4232 25.1279 19.5167 25.0623C19.6102 24.9968 19.7392 25.0195 19.8047 25.113C20.9055 26.6835 22.739 27.6551 23.7231 28.0262C23.7234 28.0261 23.7236 28.0261 23.7239 28.0261C24.252 27.9511 25.0574 27.6703 25.7166 27.0779C26.3647 26.4955 26.8818 25.6043 26.8511 24.2675C26.8508 24.2536 26.8513 24.2398 26.8527 24.2262C25.7741 23.9682 23.7729 23.3061 21.7805 22.079C21.7674 22.0709 21.7552 22.0613 21.7442 22.0505C21.4242 21.7365 21.2049 21.3794 21.0557 21.0229C20.5949 20.9254 19.7061 20.9969 19.2218 21.9933C19.1718 22.096 19.0481 22.1388 18.9454 22.0889C18.8427 22.039 18.7999 21.9153 18.8499 21.8126C19.3704 20.7418 20.289 20.5364 20.9048 20.5853C20.684 19.789 20.7567 19.0713 20.7725 18.9154L20.7735 18.9052C20.7917 18.7238 20.935 18.4485 21.2939 18.2961C21.6492 18.1451 22.1956 18.1215 23.0249 18.3767C23.821 18.6216 24.3642 18.6903 24.7275 18.6553C25.0819 18.6213 25.245 18.4923 25.3276 18.3476C25.3843 18.2485 25.5106 18.214 25.6097 18.2707C25.7088 18.3274 25.7433 18.4536 25.6866 18.5528C25.5212 18.8423 25.2191 19.0235 24.7671 19.0669C24.3241 19.1095 23.7199 19.0231 22.9033 18.7719C22.1199 18.5308 21.6842 18.5795 21.4555 18.6767C21.2303 18.7724 21.1875 18.921 21.185 18.9463L21.1842 18.9544C21.1676 19.1185 21.0842 19.9454 21.4017 20.7746C21.5311 21.1126 21.7261 21.4481 22.0175 21.7393C24.1731 23.0628 26.3341 23.7083 27.2477 23.89C27.66 23.7102 28.4061 23.0678 28.4237 21.4226C28.0208 21.4805 27.4554 21.5246 26.8365 21.5043C26.081 21.4796 25.2303 21.3585 24.4942 21.0381C24.3895 20.9925 24.3416 20.8707 24.3872 20.766C24.4327 20.6613 24.5546 20.6134 24.6593 20.659C25.3291 20.9505 26.1221 21.0672 26.85 21.0911C27.53 21.1133 28.1398 21.0542 28.5165 20.9895C28.5238 20.9821 28.5314 20.9749 28.5394 20.9682C28.549 20.9555 28.5624 20.9371 28.5792 20.9125C28.6325 20.8348 28.7099 20.7107 28.7964 20.5466C28.9696 20.2182 29.1745 19.7395 29.2986 19.1636C29.5449 18.0207 29.4761 16.4922 28.1898 14.9622C28.1237 14.8836 28.0978 14.7787 28.1199 14.6783C28.1783 14.4129 28.2147 13.7802 27.9755 13.2253C27.3823 13.782 26.037 14.222 23.7206 13.6475C22.4543 13.3334 21.4891 13.3589 20.8103 13.5213C20.1227 13.6857 19.75 13.984 19.6276 14.1925C19.5697 14.2909 19.443 14.3239 19.3446 14.266C19.2461 14.2082 19.2132 14.0815 19.2711 13.983C19.4725 13.6401 19.9682 13.2975 20.7141 13.1191C21.4688 12.9386 22.5022 12.9193 23.8202 13.2462C26.3906 13.8836 27.5302 13.1963 27.8341 12.7614ZM28.5237 20.9879C28.5235 20.9881 28.524 20.9875 28.5251 20.9862C28.5243 20.9872 28.5238 20.9877 28.5237 20.9879ZM22.9313 8.72456C22.8696 8.62849 22.7417 8.60062 22.6456 8.66232C22.5495 8.72402 22.5217 8.85193 22.5834 8.94801C22.9297 9.48728 23.0494 9.92674 23.0428 10.28C23.0362 10.6308 22.9048 10.9175 22.7095 11.1536C22.31 11.6368 21.6514 11.896 21.3182 11.9861C21.1672 12.0269 20.9183 12.0239 20.5859 11.9952C20.4327 11.9819 20.2694 11.9641 20.0985 11.9454L20.0982 11.9454L20.0706 11.9423C19.8905 11.9226 19.7028 11.9023 19.5158 11.8866C19.1441 11.8553 18.7613 11.8406 18.427 11.8879C18.0961 11.9347 17.7748 12.0475 17.571 12.3056C17.5688 12.3085 17.5666 12.3113 17.5646 12.3142C16.997 13.1155 16.9793 13.9042 17.2868 14.5281C17.5884 15.1399 18.1924 15.5712 18.8306 15.6965C19.4582 15.8198 19.9983 15.7001 20.4738 15.5747C20.5253 15.5611 20.5758 15.5476 20.6253 15.5343C21.0454 15.4217 21.3985 15.327 21.7623 15.3683C21.9274 15.3871 22.0804 15.476 22.2451 15.6284C22.3745 15.748 22.4954 15.8909 22.6285 16.0482L22.6286 16.0482C22.6688 16.0958 22.7101 16.1447 22.7532 16.1946C23.1063 16.6044 23.56 17.072 24.2806 17.0232C24.5994 17.0015 24.8307 16.953 25.0091 16.8894C25.1901 16.8249 25.3085 16.7477 25.4008 16.6805C25.4218 16.6653 25.4399 16.6519 25.4559 16.64C25.5152 16.5961 25.5457 16.5735 25.5875 16.5567C25.6283 16.5404 25.6928 16.5263 25.829 16.546C26.8084 16.6875 27.5276 17.5997 27.331 18.5316C27.2657 18.841 27.1534 19.0787 26.9929 19.2671C26.8321 19.4558 26.6133 19.6064 26.3181 19.7267C25.947 19.8779 25.5668 19.8224 25.2231 19.7721L25.2227 19.7721C25.1816 19.7661 25.141 19.7602 25.1011 19.7547C24.9879 19.7391 24.8836 19.8183 24.8681 19.9314C24.8526 20.0445 24.9317 20.1488 25.0448 20.1643C25.0803 20.1692 25.1185 20.175 25.159 20.1811L25.1594 20.1811C25.4943 20.2316 25.9909 20.3065 26.4742 20.1096C26.8157 19.9704 27.0945 19.7854 27.3076 19.5352C27.521 19.2847 27.6589 18.9802 27.7356 18.6169C27.989 17.4158 27.0664 16.3069 25.8882 16.1367C25.7033 16.11 25.5607 16.1219 25.4334 16.173C25.3372 16.2117 25.2554 16.273 25.1924 16.3203C25.1801 16.3295 25.1685 16.3382 25.1576 16.3461C25.0847 16.3991 25.0018 16.453 24.8702 16.4999C24.7361 16.5477 24.5438 16.5909 24.2526 16.6106C23.7534 16.6444 23.4215 16.3368 23.0664 15.9247C23.0299 15.8823 22.9928 15.8384 22.9552 15.7939C22.8191 15.6329 22.6758 15.4634 22.5259 15.3247C22.3307 15.1443 22.0987 14.9904 21.8089 14.9574C21.3617 14.9066 20.9284 15.0238 20.52 15.1342C20.469 15.148 20.4185 15.1616 20.3683 15.1749C19.9031 15.2976 19.4404 15.3949 18.9103 15.2908C18.3906 15.1887 17.8988 14.8343 17.6577 14.3452C17.423 13.8692 17.4151 13.2435 17.8987 12.558C18.0056 12.4254 18.1977 12.338 18.4849 12.2973C18.7714 12.2568 19.1162 12.2679 19.4811 12.2986C19.6623 12.3139 19.8452 12.3337 20.0257 12.3534L20.0549 12.3566L20.055 12.3566C20.2245 12.3751 20.3922 12.3935 20.5502 12.4071C20.8748 12.4352 21.1945 12.4478 21.426 12.3852C21.7899 12.2869 22.5476 11.9982 23.0282 11.4172C23.273 11.1212 23.4476 10.7468 23.4562 10.2877C23.4647 9.83114 23.3086 9.31208 22.9313 8.72456ZM19.816 23.4687C19.6295 23.4767 19.4119 23.5384 19.164 23.6995C18.7273 24.1086 18.4923 24.5082 18.389 24.8805C18.285 25.2559 18.311 25.6177 18.4182 25.9546C18.6353 26.6365 19.1842 27.208 19.6306 27.5231C19.7239 27.5889 19.7461 27.7179 19.6802 27.8112C19.6144 27.9045 19.4854 27.9267 19.3921 27.8609C18.9012 27.5144 18.2778 26.8764 18.0242 26.08C17.8961 25.6777 17.8621 25.2333 17.9906 24.77C18.1189 24.3072 18.4053 23.84 18.8951 23.3848C18.9034 23.3771 18.9123 23.3701 18.9217 23.3639C19.2303 23.1597 19.5244 23.0673 19.7984 23.0556C20.0717 23.044 20.312 23.1133 20.5132 23.2127C20.8418 23.3751 21.0878 23.6345 21.1981 23.7509C21.2186 23.7726 21.2345 23.7893 21.2453 23.7995C21.8952 24.4133 23.1157 24.8711 24.5517 24.6956C24.665 24.6818 24.7681 24.7624 24.782 24.8758C24.7958 24.9891 24.7152 25.0922 24.6018 25.1061C23.0606 25.2944 21.7124 24.8095 20.9614 24.1001C20.9376 24.0776 20.9104 24.0494 20.8797 24.0174C20.7588 23.8918 20.5819 23.7079 20.33 23.5834C20.1781 23.5083 20.0067 23.4606 19.816 23.4687Z" fill="#06AED4" stroke="#06AED4" stroke-width="0.5" stroke-linecap="round" stroke-linejoin="round"/>
</svg>
